<svg width="64" height="64" viewBox="0 0 64 64" xmlns="http://www.w3.org/2000/svg" shape-rendering="crispEdges">
  <rect width="64" height="64" fill="none"/>
  <rect x="20" y="8" width="24" height="4" fill="#3d2626"/>
  <rect x="16" y="12" width="32" height="4" fill="#3d2626"/>
  <rect x="12" y="16" width="40" height="8" fill="#3d2626"/>
  <rect x="8" y="24" width="12" height="28" fill="#3d2626"/>
  <rect x="44" y="24" width="12" height="28" fill="#3d2626"/>
  <rect x="16" y="20" width="32" height="4" fill="#f6b65f"/>
  <rect x="12" y="24" width="40" height="24" fill="#f6b65f"/>
  <rect x="16" y="48" width="32" height="4" fill="#e09b45"/>
  <rect x="16" y="28" width="4" height="8" fill="#3d2626"/>
  <rect x="44" y="28" width="4" height="8" fill="#3d2626"/>
  <rect x="24" y="32" width="4" height="4" fill="#3d2626"/>
  <rect x="40" y="32" width="4" height="4" fill="#3d2626"/>
  <rect x="28" y="44" width="12" height="4" fill="#3d2626"/>
  <rect x="20" y="52" width="24" height="4" fill="#3d2626"/>
</svg>
